<?xml version="1.0" encoding="UTF-8"?>
<svg width="639px" height="368px" viewBox="0 0 639 368" version="1.1" xmlns="http://www.w3.org/2000/svg" xmlns:xlink="http://www.w3.org/1999/xlink">
    <title>应用市场首页1</title>
    <g id="页面-2备份" stroke="none" stroke-width="1" fill="none" fill-rule="evenodd">
        <g id="应用市场首页" transform="translate(-758.000000, -51.000000)">
            <g id="应用市场首页1" transform="translate(758.000000, 51.000000)">
                <rect id="矩形" fill="#C0BEF1" x="134.828928" y="319.5" width="482.5" height="7" rx="3.5"></rect>
                <path d="M5.37460684,242.735852 C7.34219446,291.722874 75.2352935,344.556566 126.397416,347.671302 C176.417215,350.648194 189.763566,324.972497 250.5765,330.275086 C292.8206,333.903174 331.466988,331.85656 349.223437,323.763134 C369.348876,314.600429 382.784881,299.488305 390.986011,282.587131 C299.296961,273.828534 5.22865382,239.051396 5.37460684,242.735852 Z" id="路径" fill-opacity="0.16" fill="#BEC6FF" fill-rule="nonzero" transform="translate(198.180309, 295.187987) scale(1, -1) rotate(-6.000000) translate(-198.180309, -295.187987) "></path>
                <g id="应用市场" transform="translate(211.500000, 0.000000)">
                    <path d="M125.070127,19.039792 C129.581714,17.2559135 203.251023,-10.9404113 274.711023,4.84187478 C294.963431,5.30818135 316.511014,10.2219211 335.316767,19.3889561 C358.637027,30.7566287 376.766973,48.0204553 387.457828,70.9470669 C398.187408,93.9567254 400.36484,116.473514 395.062329,137.851094 C390.631669,155.713727 381.082364,172.231918 368.022586,186.328491 L367.377479,187.019808 L367.119205,186.776629 C358.869802,199.131464 347.54857,209.809008 332.573074,217.039792 C314.575369,225.739792 275.403894,227.939792 232.585826,224.039792 C200.533443,221.075792 181.490413,227.116112 163.46523,233.147779 L161.389236,233.84319 C146.448151,238.848053 131.892099,243.607146 110.822408,242.935335 L110.764679,243.477726 C107.706335,243.165479 104.631727,242.757925 101.553989,242.257852 C95.5462181,241.531929 89.6664047,240.223485 83.9739338,238.397858 C66.3857191,233.52226 49.5318139,225.73048 35.951675,215.562422 C11.3948252,197.17561 -1.38127541,172.292128 1.30213526,142.17845 C3.91278512,112.881307 18.2648244,89.2373696 41.866519,69.9894917 C42.4969555,69.4753521 43.127254,68.968223 43.7579592,68.4676995 L45.0200732,67.4753401 C45.2305696,67.3113748 45.4411517,67.1481135 45.6518394,66.9855411 L46.9173957,66.0182547 C47.128587,65.8583783 47.3399243,65.6991608 47.5514278,65.5405874 L48.8226052,64.5967547 C50.9450968,63.0361804 53.0882461,61.5370069 55.2722269,60.0842405 L56.5876766,59.2180296 C59.1570705,57.5431668 61.7876,55.927453 64.5113537,54.3470393 C92.308801,32.4759654 121.548691,20.4549494 125.070127,19.039792 Z M36.9298609,81.0062546 L36.6630963,81.2670358 C19.0438833,98.2483272 8.44057897,118.402815 6.28240151,142.622239 C3.76279321,170.897699 15.7046278,194.156315 38.9484586,211.560012 C41.422206,213.412217 44.0118725,215.183555 46.7004117,216.870265 C22.4806047,195.202857 8.20776637,162.655115 13.6725693,129.539792 C16.7527903,111.15724 25.5442087,94.9504046 36.9298609,81.0062546 Z M301.518682,13.0657336 L302.629213,13.5139128 C373.62785,42.593262 385.274616,94.614792 385.510363,121.839792 C385.603722,135.61873 383.362613,150.656413 378.123397,164.936681 C383.62164,156.058729 387.751138,146.558037 390.209388,136.647367 C395.236699,116.379283 393.172474,95.0331732 382.926289,73.0601583 C372.746525,51.2295843 355.463189,34.7719228 333.125904,23.8834105 C323.183172,19.0367356 312.428348,15.4191465 301.518682,13.0657336 Z" id="形状结合" fill-opacity="0.6" fill="#C7CDF8" fill-rule="nonzero"></path>
                    <rect id="矩形" fill="#FFFFFF" fill-rule="nonzero" x="55.6" y="41.3" width="226.9" height="166.06" rx="8.5"></rect>
                    <path d="M274.6,41.3 L63.5,41.3 C59.1369505,41.3 55.6,44.8369505 55.6,49.2 L55.6,57.6 L282.5,57.6 L282.5,49.2 C282.5,44.8369505 278.96305,41.3 274.6,41.3 Z" id="路径" fill="#7D8CF5" fill-rule="nonzero"></path>
                    <path d="M261.5,49.1 C261.5,49.8731986 260.873199,50.5 260.1,50.5 C259.326801,50.5 258.7,49.8731986 258.7,49.1 C258.7,48.3268014 259.326801,47.7 260.1,47.7 C260.873199,47.7 261.5,48.3268014 261.5,49.1 L261.5,49.1 Z" id="路径" fill="#FFFFFF" fill-rule="nonzero"></path>
                    <path d="M268.3,49.1 C268.3,49.8731986 267.673199,50.5 266.9,50.5 C266.126801,50.5 265.5,49.8731986 265.5,49.1 C265.5,48.3268014 266.126801,47.7 266.9,47.7 C267.673199,47.7 268.3,48.3268014 268.3,49.1 L268.3,49.1 Z" id="路径" fill="#FFFFFF" fill-rule="nonzero"></path>
                    <path d="M275.1,49.1 C275.1,49.8731986 274.473199,50.5 273.7,50.5 C272.926801,50.5 272.3,49.8731986 272.3,49.1 C272.3,48.3268014 272.926801,47.7 273.7,47.7 C274.473199,47.7 275.1,48.3268014 275.1,49.1 L275.1,49.1 Z" id="路径" fill="#FFFFFF" fill-rule="nonzero"></path>
                    <circle id="椭圆形" fill="#A5BAFF" fill-rule="nonzero" transform="translate(258.759289, 185.458987) rotate(-45.000000) translate(-258.759289, -185.458987) " cx="258.759289" cy="185.458987" r="14.8"></circle>
                    <g id="shopping_bag-24px" transform="translate(248.759289, 175.458987)">
                        <rect id="矩形" x="0" y="0" width="20" height="20"></rect>
                        <path d="M15,5 L13.3333333,5 C13.3333333,3.15833333 11.8416667,1.66666667 10,1.66666667 C8.15833333,1.66666667 6.66666667,3.15833333 6.66666667,5 L5,5 C4.08333333,5 3.33333333,5.75 3.33333333,6.66666667 L3.33333333,16.6666667 C3.33333333,17.5833333 4.08333333,18.3333333 5,18.3333333 L15,18.3333333 C15.9166667,18.3333333 16.6666667,17.5833333 16.6666667,16.6666667 L16.6666667,6.66666667 C16.6666667,5.75 15.9166667,5 15,5 Z M10,3.33333333 C10.9166667,3.33333333 11.6666667,4.08333333 11.6666667,5 L8.33333333,5 C8.33333333,4.08333333 9.08333333,3.33333333 10,3.33333333 Z M15,16.6666667 L5,16.6666667 L5,6.66666667 L6.66666667,6.66666667 L6.66666667,8.33333333 C6.66666667,8.79166667 7.04166667,9.16666667 7.5,9.16666667 C7.95833333,9.16666667 8.33333333,8.79166667 8.33333333,8.33333333 L8.33333333,6.66666667 L11.6666667,6.66666667 L11.6666667,8.33333333 C11.6666667,8.79166667 12.0416667,9.16666667 12.5,9.16666667 C12.9583333,9.16666667 13.3333333,8.79166667 13.3333333,8.33333333 L13.3333333,6.66666667 L15,6.66666667 L15,16.6666667 Z" id="形状" fill="#FFFFFF" fill-rule="nonzero"></path>
                    </g>
                    <rect id="矩形" fill="#F1F4FF" x="84.95" y="87" width="42" height="42" rx="6"></rect>
                    <g id="编组" transform="translate(92.950000, 98.500000)" fill="#7C98ED" fill-rule="nonzero">
                        <path d="M16.8235834,0 C21.8792902,0 25.9777504,4.01790565 25.9777504,9.0304962 C25.9777504,14.0430867 21.7513015,18.1521961 16.8235834,18.1521961 C14.1562671,18.1521961 11.6883191,16.6026184 10.160601,15.0720723 C9.14212225,14.0517083 8.01832167,12.8638483 6.78919924,11.5084923 L3.3730151,14.9472774 C2.68076427,15.6440855 1.54985068,15.6525658 0.847048902,14.9662186 C0.158590018,14.2938785 0.136332154,13.2041875 0.786437606,12.5049792 L0.827944726,12.4617944 L4.28185059,9.0304962 L0.827944726,5.50810367 L0.786437606,5.4649189 C0.136332154,4.76571061 0.158590018,3.67601957 0.847048902,3.0036795 C1.53489745,2.33193547 2.63283409,2.32576631 3.32824149,2.9790785 L3.3730151,3.02262075 L6.78919924,6.46129634 C8.01832167,5.13990031 9.14212225,3.95403682 10.160601,2.90370588 C11.6883191,1.32820947 14.1721826,0 16.8235834,0 Z M16.8235834,3.54189192 C13.7408354,3.54189192 11.2417743,5.97403855 11.2417743,9.0304962 C11.2417743,12.0869538 13.7408354,14.6103042 16.8235834,14.6103042 C19.9063315,14.6103042 22.4053925,12.0869538 22.4053925,9.0304962 C22.4053925,5.97403855 19.9063315,3.54189192 16.8235834,3.54189192 Z" id="形状"></path>
                    </g>
                    <rect id="矩形" stroke="#D9E6FF" x="67.9" y="67" width="76.1" height="114.48" rx="5.4"></rect>
                    <line x1="77.8" y1="148.9" x2="109.5" y2="148.9" id="路径" stroke="#D9E6FF"></line>
                    <line x1="77.8" y1="155.2" x2="109.5" y2="155.2" id="路径" stroke="#D9E6FF"></line>
                    <line x1="77.8" y1="161.5" x2="109.5" y2="161.5" id="路径" stroke="#D9E6FF"></line>
                    <rect id="矩形" stroke="#D9E6FF" x="150.8" y="67" width="76.1" height="114.48" rx="5.4"></rect>
                    <rect id="矩形" fill="#F1F4FF" x="167.85" y="87" width="42" height="42" rx="6"></rect>
                    <line x1="256.6" y1="116.4" x2="271" y2="116.4" id="路径" stroke="#D3D8FF"></line>
                    <line x1="256.6" y1="121.5" x2="271" y2="121.5" id="路径" stroke="#D3D8FF"></line>
                    <line x1="256.6" y1="126.7" x2="271" y2="126.7" id="路径" stroke="#D3D8FF"></line>
                    <rect id="矩形" fill="#D3D8FF" fill-rule="nonzero" x="239.4" y="115.2" width="12.7" height="12.66"></rect>
                    <rect id="矩形" fill="#D3D8FF" fill-rule="nonzero" x="239.4" y="92.8" width="31.7" height="12.66"></rect>
                    <line x1="256.6" y1="137.5" x2="271" y2="137.5" id="路径" stroke="#D3D8FF"></line>
                    <line x1="256.6" y1="142.6" x2="271" y2="142.6" id="路径" stroke="#D3D8FF"></line>
                    <line x1="256.6" y1="147.8" x2="271" y2="147.8" id="路径" stroke="#D3D8FF"></line>
                    <rect id="矩形" fill="#D3D8FF" fill-rule="nonzero" x="239.4" y="136.3" width="12.7" height="12.66"></rect>
                    <path d="M129.4,188.2 L149.703,195.693038 L152,195.1 L152.541,196.740038 L152.7,196.8 L152.635,197.024038 L174.3,262.6 L163,326.2 L154.4,323.3 L155.3,312.7 L156.9,264.1 L140.963,237.305038 L132.3,267.2 L102.7,316.6 L95.5,313.4 L116.7,262.7 L129.4,188.2 Z M158.8,122 C158.8,122 158.202211,125.736184 156.127629,127.547771 L157.5,127.7 C157.5,127.7 156.7,148.7 153.8,152.7 C153.704954,152.831098 153.603893,152.953387 153.497377,153.067153 C155.717994,153.259819 158.420859,153.546618 161.073198,153.847442 L161.86362,153.93766 C167.247391,154.555939 172.2,155.2 172.2,155.2 C172.2,155.2 177.3,164 170.3,164.2 C163.3,164.4 146.2,163.6 146.2,163.6 C146.2,163.6 146.408025,161.265496 146.779626,158.774528 L146.871928,158.174807 C146.972983,157.538695 147.084381,156.903733 147.205392,156.30571 C145.416252,156.922454 143.423479,157.476368 141.424816,157.963098 L140.696768,158.137438 C134.512126,159.593905 128.5,160.4 128.5,160.4 C128.5,160.4 116.7,154.8 117.4,153.5 C117.669787,152.998967 122.217547,151.799793 127.70566,150.515042 C127.775087,149.786777 127.852872,148.928831 127.925779,148.046374 L127.973741,147.452666 L127.973741,147.452666 L128.019322,146.858611 C128.18096,144.68832 128.276,142.652 128.1,142.3 C127.7,141.5 121.1,134.4 121.3,128.5 C121.5,122.6 127.9,117.1 135.6,118.6 C143.3,120.1 145.1,124.3 145.4,128.4 C145.486071,129.346786 144.831314,130.589903 145.029832,132.958287 L147.1,136.1 C147.619708,136.84244 146.430644,137.750244 145.456261,138.086773 C145.204688,140.753963 143.975815,142.786155 142.5,146.3 C142.3,146.7 141.8,146.8 141.4,146.9 C141,147 137.7,146.8 136.4,145.6 L137.062548,148.418716 C140.096786,147.761791 142.859553,147.181051 144.794251,146.77865 L153,127.2 L153.019,127.201038 L153.1,126.9 L155.1,121.6 C155.7,120.1 160.6,119.2 162.2,118.3 C163.8,117.4 162.3,121.2 158.8,122 Z" id="形状结合" fill="#FECBB8" fill-rule="nonzero"></path>
                    <path d="M96.6,311.2 C96.6,311.2 101.2,315.6 104.6,313.7 L107.3,318.2 C107.3,318.2 114.3,323.2 115.4,327.3 C107.073545,326.427879 98.9200711,324.338972 91.2,321.1 C91.2,321.1 93.4,314.2 96.6,311.2 Z" id="路径" fill="#0F1358" fill-rule="nonzero"></path>
                    <path d="M154.6,321.4 C154.6,321.4 157.3,325.5 163.9,321.4 C163.9,321.4 164.1,322.2 168.4,325.8 C168.4,325.8 178,327.5 180.8,331.2 C180.8,331.2 166.2,334.3 152.2,332.8 C152.2,332.8 152.6,325.7 154.6,321.4 Z" id="路径" fill="#0F1358" fill-rule="nonzero"></path>
                    <path d="M143.4,124.4 C141.567514,128.350673 138.826155,131.811639 135.4,134.5 C135.4,134.5 133.1,131.9 131.4,134.3 C129.7,136.7 134.9,139.4 134.9,139.4 L128.3,142.6 C128.3,142.6 121.1,136.5 120.8,130.5 C120.197532,123.846993 124.892062,117.880113 131.5,116.9 C139.9,115.5 147.7,122.3 145.3,127.2 C145.3,127.2 145.2,126 143.4,124.4 Z" id="路径" fill="#0F1358" fill-rule="nonzero"></path>
                    <polygon id="路径" fill="#D9A67A" fill-rule="nonzero" points="156.010363 146 156 110.7 179.6 115 179.6 152"></polygon>
                    <polygon id="路径" fill="#EDB789" fill-rule="nonzero" points="199.010363 147.9 199.010363 111 179.010363 116 179.010363 152"></polygon>
                    <polygon id="路径" fill="#FCE3CA" fill-rule="nonzero" points="156 110.7 176.1 106.6 199.010363 111 179.010363 117"></polygon>
                    <path d="M199.7,137.6 C199.620707,138.313635 198.661187,139.59313 197.170417,140.192135 C198.443599,140.082181 199.721126,140.01842 201,140 C202.3,140.2 202.1,141.7 201.6,142.3 C201.1,142.9 202.5,143.3 201.5,144.8 C200.5,146.3 201.6,145.7 201.3,146.6 C201.01875,147.44375 200.122266,147.496484 200.011304,148.076563 L200,148.2 C200,148.9 198.9,149.5 198.1,149.9 C196.411392,150.328336 194.648571,150.159336 193.096746,149.456853 C189.637489,152.270449 175.97971,163.203382 171.8,163.9 C167,164.7 164.9,156.8 169.2,154.9 C174.514419,152.70093 188.308467,146.471937 190.580919,145.444357 C190.898677,144.443562 191.608166,143.423853 192.330219,142.572629 C192.724979,141.619485 193.962489,138.882501 195.2,138.8 C198.4,138.5 199.8,136.7 199.7,137.6 Z" id="形状结合" fill="#FECBB8" fill-rule="nonzero"></path>
                    <path d="M137.5,149.2 C138.407472,149.783189 139.365648,150.272513 140.3597,150.66378 C143.541703,150.944936 150.00117,151.692094 159.2,153.6 C159.2,153.6 159.234975,155.331273 159.239109,157.506731 L159.239006,158.377812 C159.23835,158.673825 159.237022,158.974539 159.234878,159.277098 L159.229458,159.883828 C159.203074,162.313818 159.118182,164.74 158.9,165.7 C158.9,165.7 155.452326,165.603636 151.212651,164.972968 C151.084944,165.316877 150.955179,165.670375 150.823282,166.029681 C151.993012,168.98578 152.256291,172.800555 148.5,176.1 C148.14671,176.410323 147.825329,176.656825 147.533618,176.844894 L150.7,185.8 L139.9,194.8 C127.8,193.5 126.8,187.6 126.8,187.6 L117.9,166.2 C116.2,162.9 114.7,155.6 117.7,153.3 C120.3,151.3 123.8,152.2 127.8,149.2 L137.5,149.2 Z" id="形状结合" fill="#FD729C" fill-rule="nonzero"></path>
                    <path d="M124.8,120.6 C124.8,120.6 117.3,124.8 117.3,143.4 C117.3,162 112.8,163.4 112.4,174.7 C112,186 133.2,189.5 137.2,175.8 C142.1,158.5 134.8,151.5 134.9,139.4 L128.8,138.2 L127.6,119.2" id="路径" fill="#0F1358" fill-rule="nonzero"></path>
                    <path d="M126.8,187.5 C126.8,187.5 132.8,191.3 150.7,185.7 L168.9,236.3 C168.9,236.3 150.7,260.6 116,245.1 C116,245.1 111,213 126.8,187.5 Z" id="路径" fill="#0F1358" fill-rule="nonzero"></path>
                    <polygon id="路径" fill="#FF7F7A" fill-rule="nonzero" points="170.7 110.9 164.2 112.1 169.3 113 176 111.8"></polygon>
                    <polygon id="路径" fill="#C75F5F" fill-rule="nonzero" points="169.3 118.8 169.3 113 164.2 112.1 164.1 117.7"></polygon>
                </g>
                <g id="market" transform="translate(437.328928, 214.984459)" fill-rule="nonzero">
                    <path d="M5.66116505,50.3728155 L5.66116505,104.21165 L79.2563107,104.21165 L79.2563107,50.3728155 L5.66116505,50.3728155 Z M50.9504854,101.092233 L33.9669903,101.092233 L33.9669903,74.6349515 L50.9504854,74.6349515 L50.9504854,101.092233 Z" id="形状" fill="#22264D"></path>
                    <rect id="矩形" fill="#D6547B" x="4.20720632e-13" y="45.6359223" width="16.9834951" height="7.39417476"></rect>
                    <rect id="矩形" fill="#EBE6E6" x="16.9834951" y="45.6359223" width="16.9834951" height="7.39417476"></rect>
                    <rect id="矩形" fill="#D6547B" x="33.9669903" y="45.6359223" width="16.9834951" height="7.39417476"></rect>
                    <rect id="矩形" fill="#EBE6E6" x="50.8349515" y="45.6359223" width="16.9834951" height="7.39417476"></rect>
                    <rect id="矩形" fill="#D6547B" x="67.8184466" y="45.6359223" width="16.9834951" height="7.39417476"></rect>
                    <polygon id="路径" fill="#FD729C" points="9.70485437 37.7796117 22.7601942 37.7796117 16.9834951 45.6359223 4.26877519e-13 45.6359223"></polygon>
                    <polygon id="路径" fill="#FFFAFA" points="22.7601942 37.7796117 35.815534 37.7796117 33.9669903 45.6359223 16.9834951 45.6359223"></polygon>
                    <polygon id="路径" fill="#FD729C" points="35.815534 37.7796117 48.9864078 37.7796117 50.8349515 45.6359223 33.9669903 45.6359223"></polygon>
                    <polygon id="路径" fill="#FFFAFA" points="48.9864078 37.7796117 62.0417476 37.7796117 67.8184466 45.6359223 50.8349515 45.6359223"></polygon>
                    <polygon id="路径" fill="#FD729C" points="62.0417476 37.7796117 75.0970874 37.7796117 84.6864078 45.6359223 67.8184466 45.6359223"></polygon>
                    <path d="M16.9834951,52.6834951 C16.9834951,57.7669903 13.2864078,61.9262136 8.54951456,61.9262136 C3.81262136,61.9262136 0.115533981,57.7669903 0.115533981,52.6834951" id="路径" fill="#D6547B"></path>
                    <path d="M33.9669903,52.6834951 C33.9669903,57.7669903 30.1543689,61.9262136 25.5330097,61.9262136 C20.9116505,61.9262136 16.9834951,57.7669903 16.9834951,52.6834951" id="路径" fill="#EBE6E6"></path>
                    <path d="M84.8019417,52.6834951 C84.8019417,57.7669903 80.9893204,61.9262136 76.3679612,61.9262136 C71.7466019,61.9262136 67.8184466,57.7669903 67.8184466,52.6834951" id="路径" fill="#D6547B"></path>
                    <path d="M44.1339806,0 C37.944638,0 32.9271845,5.01745353 32.9271845,11.2067961 C32.9271845,17.4456311 44.1339806,28.4213592 44.1339806,28.4213592 C44.1339806,28.4213592 55.3407767,17.4456311 55.3407767,11.2067961 C55.3407767,5.01745353 50.3233232,0 44.1339806,0 L44.1339806,0 Z M44.2495146,16.2902913 C41.569593,16.2902913 39.3970874,14.1177856 39.3970874,11.4378641 C39.3970874,8.75794254 41.569593,6.58543689 44.2495146,6.58543689 C46.9294361,6.58543689 49.1019417,8.75794254 49.1019417,11.4378641 C49.1019417,14.1177856 46.9294361,16.2902913 44.2495146,16.2902913 Z" id="形状" fill="#FD729C"></path>
                    <polygon id="路径" fill="#D9A67A" points="57.8825243 112.067961 57.8825243 91.2718447 73.5951456 93.5825243 73.5951456 114.378641"></polygon>
                    <polygon id="路径" fill="#EDB789" points="72.4398058 114.378641 84.8019417 112.067961 84.8019417 91.2718447 72.4398058 93.5825243"></polygon>
                    <polygon id="路径" fill="#D9A67A" points="63.5436893 92.3116505 63.5436893 75.4436893 74.7624579 77.176699 74.7624579 94.5067961"></polygon>
                    <polygon id="路径" fill="#EDB789" points="84.3398058 92.3116505 84.3398058 75.4436893 73.6071181 77.176699 73.6071181 94.5067961"></polygon>
                    <polygon id="路径" fill="#D9A67A" points="91.4631068 121.768932 79.5631068 119.920388 79.5631068 102.936893 91.4631068 104.785437"></polygon>
                    <polygon id="路径" fill="#EDB789" points="101.514563 119.920388 101.514563 102.936893 90.7818753 104.438835 90.7818753 121.42233"></polygon>
                    <polygon id="路径" fill="#FCE3CA" points="63.5436893 75.4436893 73.7106796 73.4796117 84.0051763 76.0213592 73.6071181 78.3320388"></polygon>
                    <polygon id="路径" fill="#FCE3CA" points="79.5631068 102.936893 89.7300971 101.08835 101.514563 102.936893 90.7818753 105.594175"></polygon>
                    <path d="M43.9029126,6.70097087 L43.4407767,6.70097087 C40.8246628,6.70097087 38.7038835,8.8217502 38.7038835,11.4378641 C38.6727474,12.7140627 39.158032,13.9488055 40.0497689,14.8622921 C40.9415058,15.7757787 42.1641983,16.290671 43.4407767,16.2902915 L43.9029126,16.2902915 C41.3592171,16.1081418 39.390574,13.9880646 39.3970874,11.4378641 C39.3940774,8.90939405 41.3774508,6.82430917 43.9029126,6.70097087 Z" id="路径" fill="#E09E9B"></path>
                    <path d="M44.1339806,0 L43.7873786,0 C49.8148733,0.245959968 54.5910329,5.17455017 54.6475728,11.2067961 C54.6475728,16.7524272 45.7514563,26.1106796 43.7873786,28.0747573 L44.1339806,28.4213592 C44.1339806,28.4213592 55.3407767,17.4456311 55.3407767,11.2067961 C55.3407767,5.01745353 50.3233232,0 44.1339806,0 L44.1339806,0 Z" id="路径" fill="#E09E9B"></path>
                    <path d="M44.0184466,0.115533981 C43.0068654,0.109999508 41.9983022,0.226372184 41.0145631,0.462135922 C35.8323769,1.64318718 32.1466286,6.23840589 32.1184466,11.5533981 C32.1184466,17.676699 43.3252427,28.6524272 43.3252427,28.6524272 L44.0184466,28.6524272 C44.0184466,28.6524272 55.3407767,17.676699 55.3407767,11.4378641 C55.3719951,8.42553355 54.1891376,5.52748052 52.0589839,3.3973268 C49.9288302,1.26717307 47.0307771,0.084315597 44.0184466,0.115533981 Z M44.9427184,16.2902913 L44.1339806,16.2902913 C41.454059,16.2902913 39.2815534,14.1177856 39.2815534,11.4378641 C39.313616,9.34550621 40.6533683,7.49757198 42.6320388,6.81650485 L43.4407767,6.81650485 C45.1124675,6.5482088 46.8003077,7.19212944 47.8685043,8.50570811 C48.9367009,9.81928677 49.2229694,11.6029596 48.6194752,13.1848343 C48.015981,14.766709 46.6144092,15.9064612 44.9427184,16.1747573 L44.9427184,16.2902913 Z" id="形状" fill="#FD729C"></path>
                    <polygon id="路径" fill="#FCE3CA" points="72.4398058 93.5825243 57.8825243 91.2718447 70.2446602 88.961165 84.8019417 91.2718447"></polygon>
                    <path d="M50.9504854,52.6834951 C50.9504854,57.7669903 47.1378641,61.9262136 42.4009709,61.9262136 C37.6640777,61.9262136 33.9669903,57.7669903 33.9669903,52.6834951" id="路径" fill="#D6547B"></path>
                    <path d="M67.8184466,52.6834951 C67.8184466,57.7669903 64.0058252,61.9262136 59.384466,61.9262136 C54.7631068,61.9262136 50.9504854,57.7669903 50.9504854,52.6834951" id="路径" fill="#EBE6E6"></path>
                </g>
                <g id="编组-12" transform="translate(583.828928, 272.246094) scale(-1, 1) translate(-583.828928, -272.246094) translate(550.328928, 224.246094)" fill-rule="nonzero">
                    <path d="M65.8591505,71.0399526 C70.4388947,80.4607358 41.2694437,92.9690761 38.4522997,94.1507658 C39.9530906,89.9540362 41.0040488,85.1329743 41.6045963,79.7280468 L43.3228294,79.7780925 C46.7217642,79.7639954 50.096082,79.2006702 53.3152725,78.109905 C56.5815691,76.99273 59.684023,75.4443082 62.5403494,73.5057075 C63.5984569,72.79077 64.5585158,72.0758325 65.4310314,71.3819054 Z M26.1663532,13.6500915 C23.6211079,6.12497193 22.1855592,-1.55338818 32.56302,0.272276217 C46.97616,2.80792122 40.5035925,28.86501 43.5230119,29.3821481 C44.6732669,29.5791531 46.2375047,28.7157809 47.9076881,27.82036 L48.3272628,27.5964322 C50.6536684,26.3631622 53.1329689,25.2320663 54.9554771,26.906143 L54.71655,26.7130481 C51.0465375,29.66574 47.910345,33.8862543 45.7083375,37.3560843 C43.8496372,40.2893116 42.17812,43.3370446 40.703775,46.48107 C40.1032275,41.8435087 39.3191794,37.0391287 38.3516306,32.0345662 C36.2557707,21.2299964 33.588487,10.5441565 30.3610125,0.0220480916 L29.9940113,0.0220480916 C33.2229347,10.5731953 35.8957129,21.286581 38.0013113,32.1179756 C38.4517219,34.47012 38.9021325,36.9390375 39.3191794,39.4913643 C36.5988011,37.3382782 33.7522534,35.3495942 30.7947413,33.535935 C27.1247288,31.2672 21.9867113,28.4813268 16.28151,26.46282 L16.2314644,26.5128656 C16.1613585,26.5832559 16.0997691,26.6616425 16.0479638,26.7464118 C21.7698469,28.7482368 26.9245463,31.53411 30.5945588,33.802845 C35.5824394,36.8889918 38.9521781,39.6248193 39.4025888,40.0085025 C40.30341,45.68034 41.0540944,51.7525425 41.4878231,57.8914725 C34.7316638,52.9703193 21.6530738,48.8665781 15.1137788,47.01489 C15.0357177,47.1069437 14.9685454,47.207702 14.9135963,47.3151637 C21.4695731,49.1668518 34.8651188,53.3540025 41.5211869,58.3418831 C42.0883706,67.0998675 41.9882794,75.974625 40.6537294,84.0152887 C33.9642975,81.5463712 28.3258238,74.9570306 24.7725844,69.8190131 C22.9526349,67.1819466 21.28721,64.4415149 19.7847038,61.6115306 C19.6730474,61.6477689 19.5665202,61.6982291 19.4677481,61.7616675 C20.9667199,64.6078769 22.6380147,67.3599424 24.4723106,70.0025137 C28.0755956,75.1905768 33.7807969,81.8800087 40.5870019,84.3489262 C40.0389771,87.6797721 39.1982956,90.9557902 38.0747321,94.1389167 C21.7658584,83.7083847 16.0906066,64.9387357 18.9172463,62.1453506 C21.753165,59.3427956 27.5417756,66.2991375 30.561195,62.3121693 C32.1823396,60.1602075 28.4179844,58.1532161 24.1251347,56.0365407 L23.5231912,55.7404531 L23.5231912,55.7404531 L22.9173201,55.4427881 C17.5567459,52.8059945 12.0796793,49.9665809 15.5808713,46.4477062 C17.3819483,44.6392779 19.1149943,44.9786853 20.9927228,45.4729881 L21.42871,45.5889005 C23.6955803,46.1926139 26.191392,46.7985911 29.2766906,44.0288343 C35.1487106,38.7573618 10.9099463,32.3181581 16.2314644,26.4961837 C21.5529825,20.6742093 31.49538,30.0494231 29.0097806,21.791895 C28.3635248,19.6449377 27.3191927,16.9882623 26.3807963,14.2766231 Z M54.9816019,26.9303747 C55.1855569,27.1213919 55.3811803,27.3479475 55.5673256,27.6138693 C56.8481808,29.4436625 55.4061598,33.5007629 53.5151154,37.699221 L53.2209496,38.3459715 L53.2209496,38.3459715 L52.9215386,38.9932646 C50.2589923,44.708447 47.1978899,50.2895768 49.4450775,50.5014018 C50.7475983,50.6241804 52.3473501,50.0841681 53.9846828,49.510538 L54.3946486,49.3667942 C54.5314647,49.3188888 54.6683915,49.2711142 54.8052788,49.2238342 L55.2156717,49.0838428 C58.2904749,48.0505008 61.2691905,47.4519551 62.4402581,51.4355868 C64.3920375,58.0749731 52.7647706,61.294575 50.045625,66.1656825 C47.3264794,71.03679 52.4978606,72.10443 52.4978606,72.10443 C65.0480778,66.8588314 65.4162602,70.1614675 65.4260609,70.2984537 C65.5756643,70.5186767 65.7057619,70.7364552 65.8173711,70.9559396 L65.6932238,70.7365162 C64.7089931,71.5372462 63.5746256,72.3880218 62.323485,73.2221156 C57.7026056,76.3082625 50.3959444,79.8781837 41.6546419,79.3777275 C42.1551311,74.5572379 42.3334671,69.7087282 42.1884619,64.8644962 C49.9622156,56.3066943 56.8685119,52.9536375 61.3058906,51.6524512 C61.6728919,51.5356781 62.056575,51.4355868 62.4068944,51.3521775 L62.3068031,51.0352218 L61.2224813,51.3188137 C56.8017844,52.62 49.9288519,55.9396931 42.1884619,64.36404 C42.17178,64.3473581 42.17178,64.3306762 42.17178,64.2973125 C42.0046414,58.561028 41.5424987,52.8371405 40.7871844,47.148345 C42.3011044,43.8220461 44.0458378,40.6057164 46.0086113,37.5229031 C48.1148793,34.2198918 51.0758648,30.2147912 54.5119883,27.3179035 Z" id="形状结合" fill="#C1BFF1"></path>
                    <path d="M42.3719625,92.1894075 C42.3719625,92.1894075 45.0744262,70.5363337 25.1395856,50.9851762 L23.2878975,58.8089756 L22.68735,49.2002156 C22.68735,49.2002156 10.5929906,38.3069512 -7.17648163e-13,32.8352962 C-7.17648163e-13,32.8352962 6.58934062,58.1083368 9.82562437,63.162945 L17.1156037,67.433505 L9.55871437,68.1341437 C9.55871437,68.1341437 12.8950894,82.2803737 23.1878062,91.0717218 C33.4805231,99.86307 42.3719625,92.1894075 42.3719625,92.1894075 Z" id="路径" fill="#E1DEFB"></path>
                </g>
                <g id="编组-9" transform="translate(198.180309, 131.246094)">
                    <path d="M36.3801299,98.1941558 C36.3801299,98.1941558 57.7896753,59.3994156 53.4433766,43.623961 C53.4433766,43.623961 36.7020779,72.5992857 36.3801299,98.1941558 Z" id="路径" fill="#80BD82" fill-rule="nonzero"></path>
                    <path d="M41.2093506,85.4772078 C41.2093506,85.4772078 31.228961,105.116039 28.4924026,121.696364" id="路径" stroke="#80BD82"></path>
                    <path d="M23.8241558,79.3601948 C23.8241558,79.3601948 35.0923377,99.8038961 34.1264935,121.53539" id="路径" stroke="#80BD82"></path>
                    <line x1="33.8045455" y1="74.0480519" x2="32.0338312" y2="122.179286" id="路径" stroke="#80BD82"></line>
                    <path d="M33.9655195,79.5211688 C33.9655195,79.5211688 37.024026,18.833961 21.2485714,0 C21.2485714,0 17.8681169,45.5556494 33.9655195,79.5211688 Z" id="路径" fill="#80BD82" fill-rule="nonzero"></path>
                    <path d="M34.1264935,88.5357143 C34.1264935,88.5357143 51.9946104,29.4582468 41.2093506,8.37064935 C41.2093506,8.37064935 26.7216883,52.4775325 34.1264935,88.5357143 Z" id="路径" fill="#47A68B" fill-rule="nonzero"></path>
                    <path d="M29.9411688,96.9063636 C29.9411688,96.9063636 19.6388312,36.7020779 -1.18668134e-12,20.4437013 C-1.18668134e-12,20.4437013 6.76090909,65.8383766 29.9411688,96.9063636 Z" id="路径" fill="#47A68B" fill-rule="nonzero"></path>
                    <path d="M44.6905133,107.316147 L42.1952155,132.130498 C42.092452,133.152423 41.2323309,133.93039 40.2052515,133.93039 L24.506307,133.93039 C23.4792275,133.93039 22.6191064,133.152423 22.5163429,132.130498 L20.0210451,107.316147 C19.9105285,106.21712 20.7118742,105.236592 21.810901,105.126075 C21.8773941,105.119388 21.9441806,105.116039 22.0110091,105.116039 L42.7005493,105.116039 C43.8051188,105.116039 44.7005493,106.011469 44.7005493,107.116039 C44.7005493,107.182867 44.6971998,107.249654 44.6905133,107.316147 Z" id="路径" fill="#6B7AEA" fill-rule="nonzero"></path>
                </g>
                <g id="编组" transform="translate(159.500000, 265.246094)">
                    <path d="M1.95035171,54.9795903 C0.813398095,54.9795903 -0.0824647954,54.4573598 0.00602451869,53.8462726 L7.40743652,2.71250954 L14.4999891,2.71250954 L4.05191197,54.0427827 C3.94318957,54.5759231 3.10802596,54.9795903 2.11319155,54.9795903" id="Fill-1" fill="#D0CBF4"></path>
                    <path d="M115.417508,54.9795903 C114.280554,54.9795903 113.384691,54.4573598 113.47318,53.8462726 L120.874592,2.71250954 L127.967145,2.71250954 L117.519068,54.0427827 C117.410345,54.5759231 116.575182,54.9795903 115.580347,54.9795903" id="Fill-1" fill="#D0CBF4" transform="translate(120.717145, 28.846050) scale(-1, 1) translate(-120.717145, -28.846050) "></path>
                    <path d="M125.509954,4.00001865 L2.4572358,4.00001865 C2.01049277,4.00001865 1.59246362,3.67557542 1.33963242,3.13309536 C0.720979102,1.80617757 1.36517658,1.86453683e-05 2.4572358,1.86453683e-05 L125.509954,1.86453683e-05 C126.601827,1.86453683e-05 127.246211,1.80617757 126.627558,3.13309536 C126.37454,3.67557542 125.956697,4.00001865 125.509954,4.00001865" id="Fill-5" fill="#E1DEFB"></path>
                    <polygon id="Fill-7" fill="#C0BEF2" points="122.482189 7.00001865 5.48492664 7.00001865 5.66560026 4.00001865 122.301329 4.00001865"></polygon>
                </g>
                <g id="编组-8" transform="translate(95.500000, 59.000000)" fill="#0F1358">
                    <path d="M71.5902452,0 L103.590245,0 C104.694815,-2.02906125e-16 105.590245,0.8954305 105.590245,2 L105.590245,8 C105.590245,9.1045695 104.694815,10 103.590245,10 L71.5902452,10 C70.4856757,10 69.5902452,9.1045695 69.5902452,8 L69.5902452,2 C69.5902452,0.8954305 70.4856757,2.02906125e-16 71.5902452,0 Z" id="矩形" fill-opacity="0.24"></path>
                    <path d="M113.590245,12 C114.694815,12 115.590245,12.8954305 115.590245,14 L115.590245,20 C115.590245,21.1045695 114.694815,22 113.590245,22 L81.5902452,22 C80.4856757,22 79.5902452,21.1045695 79.5902452,20 L79.5902452,14 C79.5902452,12.8954305 80.4856757,12 81.5902452,12 L113.590245,12 Z M108.359497,15.5 C107.531069,15.5 106.859497,16.1715729 106.859497,17 C106.859497,17.8284271 107.531069,18.5 108.359497,18.5 C109.187924,18.5 109.859497,17.8284271 109.859497,17 C109.859497,16.1715729 109.187924,15.5 108.359497,15.5 Z" id="形状结合" fill-opacity="0.12"></path>
                    <path d="M498,132.598732 L531,132.598732 C532.104569,132.598732 533,133.494162 533,134.598732 L533,140.598732 C533,141.703301 532.104569,142.598732 531,142.598732 L498,142.598732 C496.895431,142.598732 496,141.703301 496,140.598732 L496,134.598732 C496,133.494162 496.895431,132.598732 498,132.598732 Z" id="矩形" fill-opacity="0.16"></path>
                    <path d="M541,144.598732 C542.104569,144.598732 543,145.494162 543,146.598732 L543,152.598732 C543,153.703301 542.104569,154.598732 541,154.598732 L508,154.598732 C506.895431,154.598732 506,153.703301 506,152.598732 L506,146.598732 C506,145.494162 506.895431,144.598732 508,144.598732 L541,144.598732 Z M535.769251,148.098732 C534.940824,148.098732 534.269251,148.770305 534.269251,149.598732 C534.269251,150.427159 534.940824,151.098732 535.769251,151.098732 C536.597679,151.098732 537.269251,150.427159 537.269251,149.598732 C537.269251,148.770305 536.597679,148.098732 535.769251,148.098732 Z" id="形状结合" fill-opacity="0.08"></path>
                </g>
            </g>
        </g>
    </g>
</svg>